<?xml version="1.0" encoding="UTF-8" standalone="no"?>
<!DOCTYPE svg PUBLIC "-//W3C//DTD SVG 1.1//EN" "http://www.w3.org/Graphics/SVG/1.1/DTD/svg11.dtd">
<svg width="100%" height="100%" viewBox="0 0 1500 1500" version="1.1" xmlns="http://www.w3.org/2000/svg" xmlns:xlink="http://www.w3.org/1999/xlink" xml:space="preserve" xmlns:serif="http://www.serif.com/" style="fill-rule:evenodd;clip-rule:evenodd;stroke-linecap:square;stroke-miterlimit:10;">
    <g transform="matrix(-0.981482,0,0,0.975118,750.002,750)">
        <path d="M-324.657,-691.8L-345.909,-665.035L-365.55,-638.051L-383.611,-610.919L-400.123,-583.708L-415.121,-556.482L-428.642,-529.305L-440.723,-502.235L-451.403,-475.328L-460.724,-448.639L-468.726,-422.216L-475.454,-396.109L-480.951,-370.36L-485.261,-345.012L-488.43,-320.104L-490.503,-295.672L-491.526,-271.748L-491.547,-248.363L-490.611,-225.546L-488.764,-203.321L-486.053,-181.712L-482.525,-160.739L-478.224,-140.419L-473.197,-120.769L-467.489,-101.802L-461.144,-83.529L-454.205,-65.96L-446.717,-49.101L-438.721,-32.958L-430.259,-17.534L-421.372,-2.831L-412.1,11.152L-402.481,24.416L-392.553,36.964L-382.354,48.801L-371.918,59.934L-361.28,70.369L-350.475,80.116L-339.533,89.184L-328.486,97.584L-317.364,105.329L-306.195,112.43L-295.007,118.902L-283.827,124.76L-272.678,130.018L-261.586,134.692L-250.571,138.8L-239.656,142.356L-228.861,145.381L-218.205,147.89L-207.705,149.902L-197.378,151.437L-187.238,152.511L-177.301,153.145L-167.58,153.358L-158.086,153.167L-148.831,152.593L-139.824,151.654L-131.074,150.37L-122.589,148.759L-114.376,146.84L-106.442,144.632L-98.79,142.154L-91.425,139.422L-84.352,136.456L-77.571,133.272L-71.085,129.889L-64.895,126.322L-59.002,122.589L-53.404,118.706L-48.101,114.688L-43.091,110.551L-38.372,106.31L-33.941,101.978L-29.795,97.571L-25.93,93.101L-22.342,88.582L-19.025,84.025L-15.976,79.444L-13.187,74.849L-10.655,70.252L-8.372,65.663L-6.332,61.093L-4.529,56.549L-2.955,52.043L-1.604,47.582L-0.468,43.173L0.46,38.826L1.188,34.546L1.723,30.34L2.073,26.214L2.246,22.175L2.25,18.226L2.091,14.374L1.78,10.621L1.322,6.972L0.726,3.431L0,0L1.663,3.087L3.233,6.318L4.7,9.689L6.056,13.202L7.293,16.854L8.403,20.644L9.375,24.569L10.201,28.625L10.873,32.812L11.38,37.123L11.714,41.556L11.867,46.106L11.827,50.767L11.586,55.535L11.136,60.402L10.467,65.362L9.569,70.409L8.434,75.533L7.053,80.727L5.418,85.982L3.52,91.288L1.35,96.635L-1.099,102.013L-3.836,107.41L-6.867,112.814L-10.2,118.213L-13.841,123.594L-17.797,128.943L-22.074,134.246L-26.677,139.488L-31.612,144.654L-36.882,149.728L-42.491,154.693L-48.442,159.532L-54.739,164.228L-61.382,168.762L-68.374,173.116L-75.713,177.271L-83.4,181.207L-91.434,184.904L-99.812,188.342L-108.531,191.501L-117.586,194.358L-126.974,196.893L-136.687,199.085L-146.718,200.91L-157.059,202.348L-167.701,203.375L-178.633,203.969L-189.842,204.109L-201.317,203.771L-213.042,202.933L-225.003,201.574L-237.181,199.669L-249.559,197.199L-262.117,194.141L-274.834,190.474L-287.687,186.176L-300.653,181.228L-313.707,175.61L-326.821,169.303L-339.968,162.287L-353.117,154.546L-366.239,146.061L-379.299,136.818L-392.265,126.802L-405.101,115.998L-417.771,104.394L-430.235,91.979L-442.455,78.743L-454.39,64.676L-465.997,49.773L-477.233,34.028L-488.054,17.438L-498.414,-0L-508.264,-18.285L-517.559,-37.415L-526.248,-57.385L-534.281,-78.189L-541.608,-99.818L-548.176,-122.261L-553.934,-145.505L-558.828,-169.532L-562.805,-194.324L-565.811,-219.859L-567.791,-246.113L-568.692,-273.059L-568.457,-300.665L-567.033,-328.9L-564.366,-357.725L-560.401,-387.102L-555.085,-416.988L-548.365,-447.336L-540.187,-478.097L-530.502,-509.218L-519.259,-540.643L-506.408,-572.312L-324.657,-691.8Z" style="fill:white;fill-rule:nonzero;stroke:white;stroke-width:1px;"/>
    </g>
    <g transform="matrix(-0.825675,0.527189,0.530629,0.820322,750.002,750)">
        <path d="M-324.657,-691.8L-345.909,-665.035L-365.55,-638.051L-383.611,-610.919L-400.123,-583.708L-415.121,-556.482L-428.642,-529.305L-440.723,-502.235L-451.403,-475.328L-460.724,-448.639L-468.726,-422.216L-475.454,-396.109L-480.951,-370.36L-485.261,-345.012L-488.43,-320.104L-490.503,-295.672L-491.526,-271.748L-491.547,-248.363L-490.611,-225.546L-488.764,-203.321L-486.053,-181.712L-482.525,-160.739L-478.224,-140.419L-473.197,-120.769L-467.489,-101.802L-461.144,-83.529L-454.205,-65.96L-446.717,-49.101L-438.721,-32.958L-430.259,-17.534L-421.372,-2.831L-412.1,11.152L-402.481,24.416L-392.553,36.964L-382.354,48.801L-371.918,59.934L-361.28,70.369L-350.475,80.116L-339.533,89.184L-328.486,97.584L-317.364,105.329L-306.195,112.43L-295.007,118.902L-283.827,124.76L-272.678,130.018L-261.586,134.692L-250.571,138.8L-239.656,142.356L-228.861,145.381L-218.205,147.89L-207.705,149.902L-197.378,151.437L-187.238,152.511L-177.301,153.145L-167.58,153.358L-158.086,153.167L-148.831,152.593L-139.824,151.654L-131.074,150.37L-122.589,148.759L-114.376,146.84L-106.442,144.632L-98.79,142.154L-91.425,139.422L-84.352,136.456L-77.571,133.272L-71.085,129.889L-64.895,126.322L-59.002,122.589L-53.404,118.706L-48.101,114.688L-43.091,110.551L-38.372,106.31L-33.941,101.978L-29.795,97.571L-25.93,93.101L-22.342,88.582L-19.025,84.025L-15.976,79.444L-13.187,74.849L-10.655,70.252L-8.372,65.663L-6.332,61.093L-4.529,56.549L-2.955,52.043L-1.604,47.582L-0.468,43.173L0.46,38.826L1.188,34.546L1.723,30.34L2.073,26.214L2.246,22.175L2.25,18.226L2.091,14.374L1.78,10.621L1.322,6.972L0.726,3.431L0,0L1.663,3.087L3.233,6.318L4.7,9.689L6.056,13.202L7.293,16.854L8.403,20.644L9.375,24.569L10.201,28.625L10.873,32.812L11.38,37.123L11.714,41.556L11.867,46.106L11.827,50.767L11.586,55.535L11.136,60.402L10.467,65.362L9.569,70.409L8.434,75.533L7.053,80.727L5.418,85.982L3.52,91.288L1.35,96.635L-1.099,102.013L-3.836,107.41L-6.867,112.814L-10.2,118.213L-13.841,123.594L-17.797,128.943L-22.074,134.246L-26.677,139.488L-31.612,144.654L-36.882,149.728L-42.491,154.693L-48.442,159.532L-54.739,164.228L-61.382,168.762L-68.374,173.116L-75.713,177.271L-83.4,181.207L-91.434,184.904L-99.812,188.342L-108.531,191.501L-117.586,194.358L-126.974,196.893L-136.687,199.085L-146.718,200.91L-157.059,202.348L-167.701,203.375L-178.633,203.969L-189.842,204.109L-201.317,203.771L-213.042,202.933L-225.003,201.574L-237.181,199.669L-249.559,197.199L-262.117,194.141L-274.834,190.474L-287.687,186.176L-300.653,181.228L-313.707,175.61L-326.821,169.303L-339.968,162.287L-353.117,154.546L-366.239,146.061L-379.299,136.818L-392.265,126.802L-405.101,115.998L-417.771,104.394L-430.235,91.979L-442.455,78.743L-454.39,64.676L-465.997,49.773L-477.233,34.028L-488.054,17.438L-498.414,-0L-508.264,-18.285L-517.559,-37.415L-526.248,-57.385L-534.281,-78.189L-541.608,-99.818L-548.176,-122.261L-553.934,-145.505L-558.828,-169.532L-562.805,-194.324L-565.811,-219.859L-567.791,-246.113L-568.692,-273.059L-568.457,-300.665L-567.033,-328.9L-564.366,-357.725L-560.401,-387.102L-555.085,-416.988L-548.365,-447.336L-540.187,-478.097L-530.502,-509.218L-519.259,-540.643L-506.408,-572.312L-324.657,-691.8Z" style="fill:white;fill-rule:nonzero;stroke:white;stroke-width:1px;"/>
    </g>
    <g transform="matrix(-0.407722,0.886998,0.892786,0.405079,750.002,750)">
        <path d="M-324.655,-691.801L-345.908,-665.035L-365.549,-638.051L-383.61,-610.92L-400.122,-583.708L-415.12,-556.483L-428.641,-529.306L-440.722,-502.235L-451.402,-475.329L-460.723,-448.639L-468.726,-422.217L-475.453,-396.11L-480.95,-370.361L-485.26,-345.013L-488.429,-320.105L-490.502,-295.672L-491.526,-271.749L-491.546,-248.364L-490.61,-225.547L-488.764,-203.322L-486.053,-181.713L-482.524,-160.739L-478.224,-140.42L-473.197,-120.77L-467.489,-101.803L-461.144,-83.53L-454.205,-65.96L-446.717,-49.102L-438.721,-32.958L-430.259,-17.534L-421.372,-2.831L-412.1,11.151L-402.481,24.415L-392.554,36.963L-382.354,48.8L-371.918,59.933L-361.281,70.368L-350.475,80.115L-339.533,89.183L-328.486,97.584L-317.364,105.328L-306.195,112.43L-295.007,118.902L-283.827,124.759L-272.678,130.017L-261.586,134.692L-250.571,138.799L-239.657,142.356L-228.862,145.38L-218.205,147.89L-207.705,149.902L-197.378,151.436L-187.239,152.511L-177.302,153.145L-167.58,153.357L-158.087,153.167L-148.831,152.592L-139.824,151.654L-131.074,150.37L-122.589,148.759L-114.377,146.84L-106.442,144.632L-98.79,142.153L-91.426,139.422L-84.352,136.456L-77.571,133.272L-71.085,129.889L-64.895,126.322L-59.002,122.589L-53.404,118.706L-48.101,114.688L-43.091,110.551L-38.372,106.309L-33.941,101.978L-29.795,97.571L-25.93,93.101L-22.342,88.581L-19.025,84.025L-15.976,79.444L-13.188,74.849L-10.655,70.252L-8.372,65.663L-6.332,61.093L-4.529,56.549L-2.955,52.043L-1.604,47.582L-0.468,43.173L0.46,38.826L1.188,34.546L1.723,30.34L2.073,26.214L2.246,22.175L2.25,18.226L2.091,14.374L1.78,10.621L1.322,6.972L0.726,3.431L0,0L1.663,3.087L3.233,6.318L4.7,9.689L6.056,13.202L7.293,16.854L8.403,20.644L9.375,24.569L10.201,28.625L10.873,32.812L11.38,37.123L11.714,41.556L11.867,46.106L11.827,50.767L11.586,55.535L11.136,60.402L10.467,65.362L9.569,70.409L8.434,75.533L7.053,80.727L5.418,85.982L3.52,91.288L1.35,96.635L-1.099,102.013L-3.836,107.41L-6.867,112.814L-10.2,118.213L-13.841,123.594L-17.797,128.943L-22.074,134.246L-26.677,139.488L-31.612,144.654L-36.882,149.728L-42.491,154.693L-48.442,159.532L-54.739,164.228L-61.382,168.762L-68.374,173.116L-75.713,177.271L-83.4,181.207L-91.434,184.904L-99.812,188.342L-108.531,191.501L-117.586,194.358L-126.974,196.893L-136.687,199.085L-146.718,200.91L-157.059,202.348L-167.701,203.375L-178.633,203.969L-189.842,204.109L-201.317,203.771L-213.042,202.933L-225.003,201.574L-237.181,199.669L-249.559,197.199L-262.117,194.141L-274.834,190.474L-287.687,186.176L-300.653,181.228L-313.707,175.61L-326.821,169.303L-339.968,162.287L-353.117,154.546L-366.239,146.061L-379.299,136.818L-392.265,126.802L-405.101,115.998L-417.771,104.394L-430.235,91.979L-442.455,78.743L-454.39,64.676L-465.997,49.773L-477.233,34.028L-488.054,17.438L-498.414,-0L-508.264,-18.285L-517.559,-37.415L-526.248,-57.385L-534.281,-78.189L-541.608,-99.818L-548.176,-122.261L-553.934,-145.505L-558.828,-169.532L-562.805,-194.324L-565.811,-219.859L-567.791,-246.113L-568.692,-273.059L-568.457,-300.665L-567.033,-328.9L-564.366,-357.725L-560.401,-387.102L-555.085,-416.988L-548.365,-447.336L-540.187,-478.097L-530.502,-509.218L-519.259,-540.643L-506.408,-572.312L-324.655,-691.801Z" style="fill:white;fill-rule:nonzero;stroke:white;stroke-width:1px;"/>
    </g>
    <g transform="matrix(0.139679,0.965193,0.971491,-0.138773,750.002,750)">
        <path d="M-324.655,-691.801L-345.908,-665.035L-365.549,-638.051L-383.61,-610.92L-400.122,-583.708L-415.12,-556.483L-428.641,-529.306L-440.722,-502.235L-451.402,-475.329L-460.723,-448.639L-468.726,-422.217L-475.453,-396.11L-480.95,-370.361L-485.26,-345.013L-488.429,-320.105L-490.502,-295.672L-491.526,-271.749L-491.546,-248.364L-490.61,-225.547L-488.764,-203.322L-486.053,-181.713L-482.524,-160.739L-478.224,-140.42L-473.197,-120.77L-467.489,-101.803L-461.144,-83.53L-454.205,-65.96L-446.717,-49.102L-438.721,-32.958L-430.259,-17.534L-421.372,-2.831L-412.1,11.151L-402.481,24.415L-392.554,36.963L-382.354,48.8L-371.918,59.933L-361.281,70.368L-350.475,80.115L-339.533,89.183L-328.486,97.584L-317.364,105.328L-306.195,112.43L-295.007,118.902L-283.827,124.759L-272.678,130.017L-261.586,134.692L-250.571,138.799L-239.657,142.356L-228.862,145.38L-218.205,147.89L-207.705,149.902L-197.378,151.436L-187.239,152.511L-177.302,153.145L-167.58,153.357L-158.087,153.167L-148.831,152.592L-139.824,151.654L-131.074,150.37L-122.589,148.759L-114.377,146.84L-106.442,144.632L-98.79,142.153L-91.426,139.422L-84.352,136.456L-77.571,133.272L-71.085,129.889L-64.895,126.322L-59.002,122.589L-53.404,118.706L-48.101,114.688L-43.091,110.551L-38.372,106.309L-33.941,101.978L-29.795,97.571L-25.93,93.101L-22.342,88.581L-19.025,84.025L-15.976,79.444L-13.188,74.849L-10.655,70.252L-8.372,65.663L-6.332,61.093L-4.529,56.549L-2.955,52.043L-1.604,47.582L-0.468,43.173L0.46,38.826L1.188,34.546L1.723,30.34L2.073,26.214L2.246,22.175L2.25,18.226L2.091,14.374L1.78,10.621L1.322,6.972L0.726,3.431L0,0L1.663,3.087L3.233,6.318L4.7,9.689L6.056,13.202L7.293,16.854L8.403,20.644L9.375,24.569L10.201,28.625L10.873,32.812L11.38,37.123L11.714,41.556L11.867,46.106L11.827,50.767L11.586,55.535L11.136,60.402L10.467,65.362L9.569,70.409L8.434,75.533L7.053,80.727L5.418,85.982L3.52,91.288L1.35,96.635L-1.099,102.013L-3.836,107.41L-6.867,112.814L-10.2,118.213L-13.841,123.594L-17.797,128.943L-22.074,134.246L-26.677,139.488L-31.612,144.654L-36.882,149.728L-42.491,154.693L-48.442,159.532L-54.739,164.228L-61.382,168.762L-68.374,173.116L-75.713,177.271L-83.4,181.207L-91.434,184.904L-99.812,188.342L-108.531,191.501L-117.586,194.358L-126.974,196.893L-136.687,199.085L-146.718,200.91L-157.059,202.348L-167.701,203.375L-178.633,203.969L-189.842,204.109L-201.317,203.771L-213.042,202.933L-225.003,201.574L-237.181,199.669L-249.559,197.199L-262.117,194.141L-274.834,190.474L-287.687,186.176L-300.653,181.228L-313.707,175.61L-326.821,169.303L-339.968,162.287L-353.117,154.546L-366.239,146.061L-379.299,136.818L-392.265,126.802L-405.101,115.998L-417.771,104.394L-430.235,91.979L-442.455,78.743L-454.39,64.676L-465.997,49.773L-477.233,34.028L-488.054,17.438L-498.414,-0L-508.264,-18.285L-517.559,-37.415L-526.248,-57.385L-534.281,-78.189L-541.608,-99.818L-548.176,-122.261L-553.934,-145.505L-558.828,-169.532L-562.805,-194.324L-565.811,-219.859L-567.791,-246.113L-568.692,-273.059L-568.457,-300.665L-567.033,-328.9L-564.366,-357.725L-560.401,-387.102L-555.085,-416.988L-548.365,-447.336L-540.187,-478.097L-530.502,-509.218L-519.259,-540.643L-506.408,-572.312L-324.655,-691.801Z" style="fill:white;fill-rule:nonzero;stroke:white;stroke-width:1px;"/>
    </g>
    <g transform="matrix(0.642734,0.736946,0.741755,-0.638567,750.002,750)">
        <path d="M-324.657,-691.8L-345.909,-665.035L-365.55,-638.051L-383.611,-610.919L-400.123,-583.708L-415.121,-556.482L-428.642,-529.305L-440.723,-502.235L-451.403,-475.328L-460.724,-448.639L-468.726,-422.216L-475.454,-396.109L-480.951,-370.36L-485.261,-345.012L-488.43,-320.104L-490.503,-295.672L-491.526,-271.748L-491.547,-248.363L-490.611,-225.546L-488.764,-203.321L-486.053,-181.712L-482.525,-160.739L-478.224,-140.419L-473.197,-120.769L-467.489,-101.802L-461.144,-83.529L-454.205,-65.96L-446.717,-49.101L-438.721,-32.958L-430.259,-17.534L-421.372,-2.831L-412.1,11.152L-402.481,24.416L-392.553,36.964L-382.354,48.801L-371.918,59.934L-361.28,70.369L-350.475,80.116L-339.533,89.184L-328.486,97.584L-317.364,105.329L-306.195,112.43L-295.007,118.902L-283.827,124.76L-272.678,130.018L-261.586,134.692L-250.571,138.8L-239.656,142.356L-228.861,145.381L-218.205,147.89L-207.705,149.902L-197.378,151.437L-187.238,152.511L-177.301,153.145L-167.58,153.358L-158.086,153.167L-148.831,152.593L-139.824,151.654L-131.074,150.37L-122.589,148.759L-114.376,146.84L-106.442,144.632L-98.79,142.154L-91.425,139.422L-84.352,136.456L-77.571,133.272L-71.085,129.889L-64.895,126.322L-59.002,122.589L-53.404,118.706L-48.101,114.688L-43.091,110.551L-38.372,106.31L-33.941,101.978L-29.795,97.571L-25.93,93.101L-22.342,88.582L-19.025,84.025L-15.976,79.444L-13.187,74.849L-10.655,70.252L-8.372,65.663L-6.332,61.093L-4.529,56.549L-2.955,52.043L-1.604,47.582L-0.468,43.173L0.46,38.826L1.188,34.546L1.723,30.34L2.073,26.214L2.246,22.175L2.25,18.226L2.091,14.374L1.78,10.621L1.322,6.972L0.726,3.431L0,0L1.663,3.087L3.233,6.318L4.7,9.689L6.056,13.202L7.293,16.854L8.403,20.644L9.375,24.569L10.201,28.625L10.873,32.812L11.38,37.123L11.714,41.556L11.867,46.106L11.827,50.767L11.586,55.535L11.136,60.402L10.467,65.362L9.569,70.409L8.434,75.533L7.053,80.727L5.418,85.982L3.52,91.288L1.35,96.635L-1.099,102.013L-3.836,107.41L-6.867,112.814L-10.2,118.213L-13.841,123.594L-17.797,128.943L-22.074,134.246L-26.677,139.488L-31.612,144.654L-36.882,149.728L-42.491,154.693L-48.442,159.532L-54.739,164.228L-61.382,168.762L-68.374,173.116L-75.713,177.271L-83.4,181.207L-91.434,184.904L-99.812,188.342L-108.531,191.501L-117.586,194.358L-126.974,196.893L-136.687,199.085L-146.718,200.91L-157.059,202.348L-167.701,203.375L-178.633,203.969L-189.842,204.109L-201.317,203.771L-213.042,202.933L-225.003,201.574L-237.181,199.669L-249.559,197.199L-262.117,194.141L-274.834,190.474L-287.687,186.176L-300.653,181.228L-313.707,175.61L-326.821,169.303L-339.968,162.287L-353.117,154.546L-366.239,146.061L-379.299,136.818L-392.265,126.802L-405.101,115.998L-417.771,104.394L-430.235,91.979L-442.455,78.743L-454.39,64.676L-465.997,49.773L-477.233,34.028L-488.054,17.438L-498.414,-0L-508.264,-18.285L-517.559,-37.415L-526.248,-57.385L-534.281,-78.189L-541.608,-99.818L-548.176,-122.261L-553.934,-145.505L-558.828,-169.532L-562.805,-194.324L-565.811,-219.859L-567.791,-246.113L-568.692,-273.059L-568.457,-300.665L-567.033,-328.9L-564.366,-357.725L-560.401,-387.102L-555.085,-416.988L-548.365,-447.336L-540.187,-478.097L-530.502,-509.218L-519.259,-540.643L-506.408,-572.312L-324.657,-691.8Z" style="fill:white;fill-rule:nonzero;stroke:white;stroke-width:1px;"/>
    </g>
    <g transform="matrix(0.941724,0.274722,0.276514,-0.935619,750.002,750)">
        <path d="M-324.657,-691.8L-345.909,-665.035L-365.55,-638.051L-383.611,-610.919L-400.123,-583.708L-415.121,-556.482L-428.642,-529.305L-440.723,-502.235L-451.403,-475.328L-460.724,-448.639L-468.726,-422.216L-475.454,-396.109L-480.951,-370.36L-485.261,-345.012L-488.43,-320.104L-490.503,-295.672L-491.526,-271.748L-491.547,-248.363L-490.611,-225.546L-488.764,-203.321L-486.053,-181.712L-482.525,-160.739L-478.224,-140.419L-473.197,-120.769L-467.489,-101.802L-461.144,-83.529L-454.205,-65.96L-446.717,-49.101L-438.721,-32.958L-430.259,-17.534L-421.372,-2.831L-412.1,11.152L-402.481,24.416L-392.553,36.964L-382.354,48.801L-371.918,59.934L-361.28,70.369L-350.475,80.116L-339.533,89.184L-328.486,97.584L-317.364,105.329L-306.195,112.43L-295.007,118.902L-283.827,124.76L-272.678,130.018L-261.586,134.692L-250.571,138.8L-239.656,142.356L-228.861,145.381L-218.205,147.89L-207.705,149.902L-197.378,151.437L-187.238,152.511L-177.301,153.145L-167.58,153.358L-158.086,153.167L-148.831,152.593L-139.824,151.654L-131.074,150.37L-122.589,148.759L-114.376,146.84L-106.442,144.632L-98.79,142.154L-91.425,139.422L-84.352,136.456L-77.571,133.272L-71.085,129.889L-64.895,126.322L-59.002,122.589L-53.404,118.706L-48.101,114.688L-43.091,110.551L-38.372,106.31L-33.941,101.978L-29.795,97.571L-25.93,93.101L-22.342,88.582L-19.025,84.025L-15.976,79.444L-13.187,74.849L-10.655,70.252L-8.372,65.663L-6.332,61.093L-4.529,56.549L-2.955,52.043L-1.604,47.582L-0.468,43.173L0.46,38.826L1.188,34.546L1.723,30.34L2.073,26.214L2.246,22.175L2.25,18.226L2.091,14.374L1.78,10.621L1.322,6.972L0.726,3.431L0,0L1.663,3.087L3.233,6.318L4.7,9.689L6.056,13.202L7.293,16.854L8.403,20.644L9.375,24.569L10.201,28.625L10.873,32.812L11.38,37.123L11.714,41.556L11.867,46.106L11.827,50.767L11.586,55.535L11.136,60.402L10.467,65.362L9.569,70.409L8.434,75.533L7.053,80.727L5.418,85.982L3.52,91.288L1.35,96.635L-1.099,102.013L-3.836,107.41L-6.867,112.814L-10.2,118.213L-13.841,123.594L-17.797,128.943L-22.074,134.246L-26.677,139.488L-31.612,144.654L-36.882,149.728L-42.491,154.693L-48.442,159.532L-54.739,164.228L-61.382,168.762L-68.374,173.116L-75.713,177.271L-83.4,181.207L-91.434,184.904L-99.812,188.342L-108.531,191.501L-117.586,194.358L-126.974,196.893L-136.687,199.085L-146.718,200.91L-157.059,202.348L-167.701,203.375L-178.633,203.969L-189.842,204.109L-201.317,203.771L-213.042,202.933L-225.003,201.574L-237.181,199.669L-249.559,197.199L-262.117,194.141L-274.834,190.474L-287.687,186.176L-300.653,181.228L-313.707,175.61L-326.821,169.303L-339.968,162.287L-353.117,154.546L-366.239,146.061L-379.299,136.818L-392.265,126.802L-405.101,115.998L-417.771,104.394L-430.235,91.979L-442.455,78.743L-454.39,64.676L-465.997,49.773L-477.233,34.028L-488.054,17.438L-498.414,-0L-508.264,-18.285L-517.559,-37.415L-526.248,-57.385L-534.281,-78.189L-541.608,-99.818L-548.176,-122.261L-553.934,-145.505L-558.828,-169.532L-562.805,-194.324L-565.811,-219.859L-567.791,-246.113L-568.692,-273.059L-568.457,-300.665L-567.033,-328.9L-564.366,-357.725L-560.401,-387.102L-555.085,-416.988L-548.365,-447.336L-540.187,-478.097L-530.502,-509.218L-519.259,-540.643L-506.408,-572.312L-324.657,-691.8Z" style="fill:white;fill-rule:nonzero;stroke:white;stroke-width:1px;"/>
    </g>
    <g transform="matrix(0.941724,-0.274722,-0.276514,-0.935619,750.002,750)">
        <path d="M-324.655,-691.801L-345.908,-665.035L-365.549,-638.051L-383.61,-610.92L-400.122,-583.708L-415.12,-556.483L-428.641,-529.306L-440.722,-502.235L-451.402,-475.329L-460.723,-448.639L-468.726,-422.217L-475.453,-396.11L-480.95,-370.361L-485.26,-345.013L-488.429,-320.105L-490.502,-295.672L-491.526,-271.749L-491.546,-248.364L-490.61,-225.547L-488.764,-203.322L-486.053,-181.713L-482.524,-160.739L-478.224,-140.42L-473.197,-120.77L-467.489,-101.803L-461.144,-83.53L-454.205,-65.96L-446.717,-49.102L-438.721,-32.958L-430.259,-17.534L-421.372,-2.831L-412.1,11.151L-402.481,24.415L-392.554,36.963L-382.354,48.8L-371.918,59.933L-361.281,70.368L-350.475,80.115L-339.533,89.183L-328.486,97.584L-317.364,105.328L-306.195,112.43L-295.007,118.902L-283.827,124.759L-272.678,130.017L-261.586,134.692L-250.571,138.799L-239.657,142.356L-228.862,145.38L-218.205,147.89L-207.705,149.902L-197.378,151.436L-187.239,152.511L-177.302,153.145L-167.58,153.357L-158.087,153.167L-148.831,152.592L-139.824,151.654L-131.074,150.37L-122.589,148.759L-114.377,146.84L-106.442,144.632L-98.79,142.153L-91.426,139.422L-84.352,136.456L-77.571,133.272L-71.085,129.889L-64.895,126.322L-59.002,122.589L-53.404,118.706L-48.101,114.688L-43.091,110.551L-38.372,106.309L-33.941,101.978L-29.795,97.571L-25.93,93.101L-22.342,88.581L-19.025,84.025L-15.976,79.444L-13.188,74.849L-10.655,70.252L-8.372,65.663L-6.332,61.093L-4.529,56.549L-2.955,52.043L-1.604,47.582L-0.468,43.173L0.46,38.826L1.188,34.546L1.723,30.34L2.073,26.214L2.246,22.175L2.25,18.226L2.091,14.374L1.78,10.621L1.322,6.972L0.726,3.431L0,0L1.663,3.087L3.233,6.318L4.7,9.689L6.056,13.202L7.293,16.854L8.403,20.644L9.375,24.569L10.201,28.625L10.873,32.812L11.38,37.123L11.714,41.556L11.867,46.106L11.827,50.767L11.586,55.535L11.136,60.402L10.467,65.362L9.569,70.409L8.434,75.533L7.053,80.727L5.418,85.982L3.52,91.288L1.35,96.635L-1.099,102.013L-3.836,107.41L-6.867,112.814L-10.2,118.213L-13.841,123.594L-17.797,128.943L-22.074,134.246L-26.677,139.488L-31.612,144.654L-36.882,149.728L-42.491,154.693L-48.442,159.532L-54.739,164.228L-61.382,168.762L-68.374,173.116L-75.713,177.271L-83.4,181.207L-91.434,184.904L-99.812,188.342L-108.531,191.501L-117.586,194.358L-126.974,196.893L-136.687,199.085L-146.718,200.91L-157.059,202.348L-167.701,203.375L-178.633,203.969L-189.842,204.109L-201.317,203.771L-213.042,202.933L-225.003,201.574L-237.181,199.669L-249.559,197.199L-262.117,194.141L-274.834,190.474L-287.687,186.176L-300.653,181.228L-313.707,175.61L-326.821,169.303L-339.968,162.287L-353.117,154.546L-366.239,146.061L-379.299,136.818L-392.265,126.802L-405.101,115.998L-417.771,104.394L-430.235,91.979L-442.455,78.743L-454.39,64.676L-465.997,49.773L-477.233,34.028L-488.054,17.438L-498.414,-0L-508.264,-18.285L-517.559,-37.415L-526.248,-57.385L-534.281,-78.189L-541.608,-99.818L-548.176,-122.261L-553.934,-145.505L-558.828,-169.532L-562.805,-194.324L-565.811,-219.859L-567.791,-246.113L-568.692,-273.059L-568.457,-300.665L-567.033,-328.9L-564.366,-357.725L-560.401,-387.102L-555.085,-416.988L-548.365,-447.336L-540.187,-478.097L-530.502,-509.218L-519.259,-540.643L-506.408,-572.312L-324.655,-691.801Z" style="fill:white;fill-rule:nonzero;stroke:white;stroke-width:1px;"/>
    </g>
    <g transform="matrix(0.642734,-0.736946,-0.741755,-0.638567,750.002,750)">
        <path d="M-324.655,-691.801L-345.908,-665.035L-365.549,-638.051L-383.61,-610.92L-400.122,-583.708L-415.12,-556.483L-428.641,-529.306L-440.722,-502.235L-451.402,-475.329L-460.723,-448.639L-468.726,-422.217L-475.453,-396.11L-480.95,-370.361L-485.26,-345.013L-488.429,-320.105L-490.502,-295.672L-491.526,-271.749L-491.546,-248.364L-490.61,-225.547L-488.764,-203.322L-486.053,-181.713L-482.524,-160.739L-478.224,-140.42L-473.197,-120.77L-467.489,-101.803L-461.144,-83.53L-454.205,-65.96L-446.717,-49.102L-438.721,-32.958L-430.259,-17.534L-421.372,-2.831L-412.1,11.151L-402.481,24.415L-392.554,36.963L-382.354,48.8L-371.918,59.933L-361.281,70.368L-350.475,80.115L-339.533,89.183L-328.486,97.584L-317.364,105.328L-306.195,112.43L-295.007,118.902L-283.827,124.759L-272.678,130.017L-261.586,134.692L-250.571,138.799L-239.657,142.356L-228.862,145.38L-218.205,147.89L-207.705,149.902L-197.378,151.436L-187.239,152.511L-177.302,153.145L-167.58,153.357L-158.087,153.167L-148.831,152.592L-139.824,151.654L-131.074,150.37L-122.589,148.759L-114.377,146.84L-106.442,144.632L-98.79,142.153L-91.426,139.422L-84.352,136.456L-77.571,133.272L-71.085,129.889L-64.895,126.322L-59.002,122.589L-53.404,118.706L-48.101,114.688L-43.091,110.551L-38.372,106.309L-33.941,101.978L-29.795,97.571L-25.93,93.101L-22.342,88.581L-19.025,84.025L-15.976,79.444L-13.188,74.849L-10.655,70.252L-8.372,65.663L-6.332,61.093L-4.529,56.549L-2.955,52.043L-1.604,47.582L-0.468,43.173L0.46,38.826L1.188,34.546L1.723,30.34L2.073,26.214L2.246,22.175L2.25,18.226L2.091,14.374L1.78,10.621L1.322,6.972L0.726,3.431L0,0L1.663,3.087L3.233,6.318L4.7,9.689L6.056,13.202L7.293,16.854L8.403,20.644L9.375,24.569L10.201,28.625L10.873,32.812L11.38,37.123L11.714,41.556L11.867,46.106L11.827,50.767L11.586,55.535L11.136,60.402L10.467,65.362L9.569,70.409L8.434,75.533L7.053,80.727L5.418,85.982L3.52,91.288L1.35,96.635L-1.099,102.013L-3.836,107.41L-6.867,112.814L-10.2,118.213L-13.841,123.594L-17.797,128.943L-22.074,134.246L-26.677,139.488L-31.612,144.654L-36.882,149.728L-42.491,154.693L-48.442,159.532L-54.739,164.228L-61.382,168.762L-68.374,173.116L-75.713,177.271L-83.4,181.207L-91.434,184.904L-99.812,188.342L-108.531,191.501L-117.586,194.358L-126.974,196.893L-136.687,199.085L-146.718,200.91L-157.059,202.348L-167.701,203.375L-178.633,203.969L-189.842,204.109L-201.317,203.771L-213.042,202.933L-225.003,201.574L-237.181,199.669L-249.559,197.199L-262.117,194.141L-274.834,190.474L-287.687,186.176L-300.653,181.228L-313.707,175.61L-326.821,169.303L-339.968,162.287L-353.117,154.546L-366.239,146.061L-379.299,136.818L-392.265,126.802L-405.101,115.998L-417.771,104.394L-430.235,91.979L-442.455,78.743L-454.39,64.676L-465.997,49.773L-477.233,34.028L-488.054,17.438L-498.414,-0L-508.264,-18.285L-517.559,-37.415L-526.248,-57.385L-534.281,-78.189L-541.608,-99.818L-548.176,-122.261L-553.934,-145.505L-558.828,-169.532L-562.805,-194.324L-565.811,-219.859L-567.791,-246.113L-568.692,-273.059L-568.457,-300.665L-567.033,-328.9L-564.366,-357.725L-560.401,-387.102L-555.085,-416.988L-548.365,-447.336L-540.187,-478.097L-530.502,-509.218L-519.259,-540.643L-506.408,-572.312L-324.655,-691.801Z" style="fill:white;fill-rule:nonzero;stroke:white;stroke-width:1px;"/>
    </g>
    <g transform="matrix(0.139679,-0.965193,-0.971491,-0.138773,750.002,750)">
        <path d="M-324.657,-691.8L-345.909,-665.035L-365.55,-638.051L-383.611,-610.919L-400.123,-583.708L-415.121,-556.482L-428.642,-529.305L-440.723,-502.235L-451.403,-475.328L-460.724,-448.639L-468.726,-422.216L-475.454,-396.109L-480.951,-370.36L-485.261,-345.012L-488.43,-320.104L-490.503,-295.672L-491.526,-271.748L-491.547,-248.363L-490.611,-225.546L-488.764,-203.321L-486.053,-181.712L-482.525,-160.739L-478.224,-140.419L-473.197,-120.769L-467.489,-101.802L-461.144,-83.529L-454.205,-65.96L-446.717,-49.101L-438.721,-32.958L-430.259,-17.534L-421.372,-2.831L-412.1,11.152L-402.481,24.416L-392.553,36.964L-382.354,48.801L-371.918,59.934L-361.28,70.369L-350.475,80.116L-339.533,89.184L-328.486,97.584L-317.364,105.329L-306.195,112.43L-295.007,118.902L-283.827,124.76L-272.678,130.018L-261.586,134.692L-250.571,138.8L-239.656,142.356L-228.861,145.381L-218.205,147.89L-207.705,149.902L-197.378,151.437L-187.238,152.511L-177.301,153.145L-167.58,153.358L-158.086,153.167L-148.831,152.593L-139.824,151.654L-131.074,150.37L-122.589,148.759L-114.376,146.84L-106.442,144.632L-98.79,142.154L-91.425,139.422L-84.352,136.456L-77.571,133.272L-71.085,129.889L-64.895,126.322L-59.002,122.589L-53.404,118.706L-48.101,114.688L-43.091,110.551L-38.372,106.31L-33.941,101.978L-29.795,97.571L-25.93,93.101L-22.342,88.582L-19.025,84.025L-15.976,79.444L-13.187,74.849L-10.655,70.252L-8.372,65.663L-6.332,61.093L-4.529,56.549L-2.955,52.043L-1.604,47.582L-0.468,43.173L0.46,38.826L1.188,34.546L1.723,30.34L2.073,26.214L2.246,22.175L2.25,18.226L2.091,14.374L1.78,10.621L1.322,6.972L0.726,3.431L0,0L1.663,3.087L3.233,6.318L4.7,9.689L6.056,13.202L7.293,16.854L8.403,20.644L9.375,24.569L10.201,28.625L10.873,32.812L11.38,37.123L11.714,41.556L11.867,46.106L11.827,50.767L11.586,55.535L11.136,60.402L10.467,65.362L9.569,70.409L8.434,75.533L7.053,80.727L5.418,85.982L3.52,91.288L1.35,96.635L-1.099,102.013L-3.836,107.41L-6.867,112.814L-10.2,118.213L-13.841,123.594L-17.797,128.943L-22.074,134.246L-26.677,139.488L-31.612,144.654L-36.882,149.728L-42.491,154.693L-48.442,159.532L-54.739,164.228L-61.382,168.762L-68.374,173.116L-75.713,177.271L-83.4,181.207L-91.434,184.904L-99.812,188.342L-108.531,191.501L-117.586,194.358L-126.974,196.893L-136.687,199.085L-146.718,200.91L-157.059,202.348L-167.701,203.375L-178.633,203.969L-189.842,204.109L-201.317,203.771L-213.042,202.933L-225.003,201.574L-237.181,199.669L-249.559,197.199L-262.117,194.141L-274.834,190.474L-287.687,186.176L-300.653,181.228L-313.707,175.61L-326.821,169.303L-339.968,162.287L-353.117,154.546L-366.239,146.061L-379.299,136.818L-392.265,126.802L-405.101,115.998L-417.771,104.394L-430.235,91.979L-442.455,78.743L-454.39,64.676L-465.997,49.773L-477.233,34.028L-488.054,17.438L-498.414,-0L-508.264,-18.285L-517.559,-37.415L-526.248,-57.385L-534.281,-78.189L-541.608,-99.818L-548.176,-122.261L-553.934,-145.505L-558.828,-169.532L-562.805,-194.324L-565.811,-219.859L-567.791,-246.113L-568.692,-273.059L-568.457,-300.665L-567.033,-328.9L-564.366,-357.725L-560.401,-387.102L-555.085,-416.988L-548.365,-447.336L-540.187,-478.097L-530.502,-509.218L-519.259,-540.643L-506.408,-572.312L-324.657,-691.8Z" style="fill:white;fill-rule:nonzero;stroke:white;stroke-width:1px;"/>
    </g>
    <g transform="matrix(-0.407722,-0.886998,-0.892786,0.405079,750.002,750)">
        <path d="M-324.657,-691.8L-345.909,-665.035L-365.55,-638.051L-383.611,-610.919L-400.123,-583.708L-415.121,-556.482L-428.642,-529.305L-440.723,-502.235L-451.403,-475.328L-460.724,-448.639L-468.726,-422.216L-475.454,-396.109L-480.951,-370.36L-485.261,-345.012L-488.43,-320.104L-490.503,-295.672L-491.526,-271.748L-491.547,-248.363L-490.611,-225.546L-488.764,-203.321L-486.053,-181.712L-482.525,-160.739L-478.224,-140.419L-473.197,-120.769L-467.489,-101.802L-461.144,-83.529L-454.205,-65.96L-446.717,-49.101L-438.721,-32.958L-430.259,-17.534L-421.372,-2.831L-412.1,11.152L-402.481,24.416L-392.553,36.964L-382.354,48.801L-371.918,59.934L-361.28,70.369L-350.475,80.116L-339.533,89.184L-328.486,97.584L-317.364,105.329L-306.195,112.43L-295.007,118.902L-283.827,124.76L-272.678,130.018L-261.586,134.692L-250.571,138.8L-239.656,142.356L-228.861,145.381L-218.205,147.89L-207.705,149.902L-197.378,151.437L-187.238,152.511L-177.301,153.145L-167.58,153.358L-158.086,153.167L-148.831,152.593L-139.824,151.654L-131.074,150.37L-122.589,148.759L-114.376,146.84L-106.442,144.632L-98.79,142.154L-91.425,139.422L-84.352,136.456L-77.571,133.272L-71.085,129.889L-64.895,126.322L-59.002,122.589L-53.404,118.706L-48.101,114.688L-43.091,110.551L-38.372,106.31L-33.941,101.978L-29.795,97.571L-25.93,93.101L-22.342,88.582L-19.025,84.025L-15.976,79.444L-13.187,74.849L-10.655,70.252L-8.372,65.663L-6.332,61.093L-4.529,56.549L-2.955,52.043L-1.604,47.582L-0.468,43.173L0.46,38.826L1.188,34.546L1.723,30.34L2.073,26.214L2.246,22.175L2.25,18.226L2.091,14.374L1.78,10.621L1.322,6.972L0.726,3.431L0,0L1.663,3.087L3.233,6.318L4.7,9.689L6.056,13.202L7.293,16.854L8.403,20.644L9.375,24.569L10.201,28.625L10.873,32.812L11.38,37.123L11.714,41.556L11.867,46.106L11.827,50.767L11.586,55.535L11.136,60.402L10.467,65.362L9.569,70.409L8.434,75.533L7.053,80.727L5.418,85.982L3.52,91.288L1.35,96.635L-1.099,102.013L-3.836,107.41L-6.867,112.814L-10.2,118.213L-13.841,123.594L-17.797,128.943L-22.074,134.246L-26.677,139.488L-31.612,144.654L-36.882,149.728L-42.491,154.693L-48.442,159.532L-54.739,164.228L-61.382,168.762L-68.374,173.116L-75.713,177.271L-83.4,181.207L-91.434,184.904L-99.812,188.342L-108.531,191.501L-117.586,194.358L-126.974,196.893L-136.687,199.085L-146.718,200.91L-157.059,202.348L-167.701,203.375L-178.633,203.969L-189.842,204.109L-201.317,203.771L-213.042,202.933L-225.003,201.574L-237.181,199.669L-249.559,197.199L-262.117,194.141L-274.834,190.474L-287.687,186.176L-300.653,181.228L-313.707,175.61L-326.821,169.303L-339.968,162.287L-353.117,154.546L-366.239,146.061L-379.299,136.818L-392.265,126.802L-405.101,115.998L-417.771,104.394L-430.235,91.979L-442.455,78.743L-454.39,64.676L-465.997,49.773L-477.233,34.028L-488.054,17.438L-498.414,-0L-508.264,-18.285L-517.559,-37.415L-526.248,-57.385L-534.281,-78.189L-541.608,-99.818L-548.176,-122.261L-553.934,-145.505L-558.828,-169.532L-562.805,-194.324L-565.811,-219.859L-567.791,-246.113L-568.692,-273.059L-568.457,-300.665L-567.033,-328.9L-564.366,-357.725L-560.401,-387.102L-555.085,-416.988L-548.365,-447.336L-540.187,-478.097L-530.502,-509.218L-519.259,-540.643L-506.408,-572.312L-324.657,-691.8Z" style="fill:white;fill-rule:nonzero;stroke:white;stroke-width:1px;"/>
    </g>
    <g transform="matrix(-0.825675,-0.527189,-0.530629,0.820322,750.002,750)">
        <path d="M-324.655,-691.801L-345.908,-665.035L-365.549,-638.051L-383.61,-610.92L-400.122,-583.708L-415.12,-556.483L-428.641,-529.306L-440.722,-502.235L-451.402,-475.329L-460.723,-448.639L-468.726,-422.217L-475.453,-396.11L-480.95,-370.361L-485.26,-345.013L-488.429,-320.105L-490.502,-295.672L-491.526,-271.749L-491.546,-248.364L-490.61,-225.547L-488.764,-203.322L-486.053,-181.713L-482.524,-160.739L-478.224,-140.42L-473.197,-120.77L-467.489,-101.803L-461.144,-83.53L-454.205,-65.96L-446.717,-49.102L-438.721,-32.958L-430.259,-17.534L-421.372,-2.831L-412.1,11.151L-402.481,24.415L-392.554,36.963L-382.354,48.8L-371.918,59.933L-361.281,70.368L-350.475,80.115L-339.533,89.183L-328.486,97.584L-317.364,105.328L-306.195,112.43L-295.007,118.902L-283.827,124.759L-272.678,130.017L-261.586,134.692L-250.571,138.799L-239.657,142.356L-228.862,145.38L-218.205,147.89L-207.705,149.902L-197.378,151.436L-187.239,152.511L-177.302,153.145L-167.58,153.357L-158.087,153.167L-148.831,152.592L-139.824,151.654L-131.074,150.37L-122.589,148.759L-114.377,146.84L-106.442,144.632L-98.79,142.153L-91.426,139.422L-84.352,136.456L-77.571,133.272L-71.085,129.889L-64.895,126.322L-59.002,122.589L-53.404,118.706L-48.101,114.688L-43.091,110.551L-38.372,106.309L-33.941,101.978L-29.795,97.571L-25.93,93.101L-22.342,88.581L-19.025,84.025L-15.976,79.444L-13.188,74.849L-10.655,70.252L-8.372,65.663L-6.332,61.093L-4.529,56.549L-2.955,52.043L-1.604,47.582L-0.468,43.173L0.46,38.826L1.188,34.546L1.723,30.34L2.073,26.214L2.246,22.175L2.25,18.226L2.091,14.374L1.78,10.621L1.322,6.972L0.726,3.431L0,0L1.663,3.087L3.233,6.318L4.7,9.689L6.056,13.202L7.293,16.854L8.403,20.644L9.375,24.569L10.201,28.625L10.873,32.812L11.38,37.123L11.714,41.556L11.867,46.106L11.827,50.767L11.586,55.535L11.136,60.402L10.467,65.362L9.569,70.409L8.434,75.533L7.053,80.727L5.418,85.982L3.52,91.288L1.35,96.635L-1.099,102.013L-3.836,107.41L-6.867,112.814L-10.2,118.213L-13.841,123.594L-17.797,128.943L-22.074,134.246L-26.677,139.488L-31.612,144.654L-36.882,149.728L-42.491,154.693L-48.442,159.532L-54.739,164.228L-61.382,168.762L-68.374,173.116L-75.713,177.271L-83.4,181.207L-91.434,184.904L-99.812,188.342L-108.531,191.501L-117.586,194.358L-126.974,196.893L-136.687,199.085L-146.718,200.91L-157.059,202.348L-167.701,203.375L-178.633,203.969L-189.842,204.109L-201.317,203.771L-213.042,202.933L-225.003,201.574L-237.181,199.669L-249.559,197.199L-262.117,194.141L-274.834,190.474L-287.687,186.176L-300.653,181.228L-313.707,175.61L-326.821,169.303L-339.968,162.287L-353.117,154.546L-366.239,146.061L-379.299,136.818L-392.265,126.802L-405.101,115.998L-417.771,104.394L-430.235,91.979L-442.455,78.743L-454.39,64.676L-465.997,49.773L-477.233,34.028L-488.054,17.438L-498.414,-0L-508.264,-18.285L-517.559,-37.415L-526.248,-57.385L-534.281,-78.189L-541.608,-99.818L-548.176,-122.261L-553.934,-145.505L-558.828,-169.532L-562.805,-194.324L-565.811,-219.859L-567.791,-246.113L-568.692,-273.059L-568.457,-300.665L-567.033,-328.9L-564.366,-357.725L-560.401,-387.102L-555.085,-416.988L-548.365,-447.336L-540.187,-478.097L-530.502,-509.218L-519.259,-540.643L-506.408,-572.312L-324.655,-691.801Z" style="fill:white;fill-rule:nonzero;stroke:white;stroke-width:1px;"/>
    </g>
</svg>
